<?xml version="1.0" standalone="no"?>
<!DOCTYPE svg PUBLIC "-//W3C//DTD SVG 1.1//EN" "http://www.w3.org/Graphics/SVG/1.1/DTD/svg11.dtd">
<svg width="1024px" height="1024px" version="1.1" xmlns="http://www.w3.org/2000/svg" xmlns:xlink="http://www.w3.org/1999/xlink" xml:space="preserve" style="fill-rule:evenodd;clip-rule:evenodd;stroke-linejoin:round;stroke-miterlimit:1.41421;">
    <g id="android">
        <g>
            <path d="M512,20.48C783.459,20.48 1003.52,240.541 1003.52,512C1003.52,783.459 783.459,1003.52 512,1003.52C240.541,1003.52 20.48,783.459 20.48,512C20.48,240.541 240.541,20.48 512,20.48Z" style="fill:rgb(254,80,0);"/>
        </g>
        <g>
            <path d="M802.708,722.419C798.267,735.743 787.114,745.81 773.396,748.87C599.198,788.348 424.901,788.348 250.604,748.87C236.984,745.81 225.733,735.743 221.292,722.419C174.609,582.173 174.609,441.926 221.292,301.679C225.733,288.355 236.886,278.288 250.604,275.13C424.901,235.652 599.198,235.652 773.396,275.13C787.114,278.288 798.267,288.355 802.708,301.679C849.391,441.926 849.391,582.173 802.708,722.419ZM764.118,354.778C759.48,348.066 750.202,346.29 743.491,350.929C743.491,350.929 711.514,372.938 664.436,406.889C640.946,423.865 613.41,443.604 584.492,465.218C569.885,476.075 554.883,487.227 539.585,498.479L528.038,507.065L525.176,509.138L523.695,510.223L523.399,510.52C528.334,506.67 524.682,509.533 525.669,508.743L525.472,508.842L524.781,509.335L518.662,513.184C515.997,513.579 519.057,512.296 516.293,512.888C514.912,513.48 513.431,513.086 511.951,513.382C508.891,513.382 506.029,512.691 503.068,511.803C502.377,511.309 501.686,511.013 500.897,510.717C500.305,510.618 497.442,508.151 495.765,507.065L484.316,498.577C469.018,487.227 453.918,476.075 439.409,465.317C410.393,443.604 382.955,423.865 359.367,406.889C312.388,372.938 280.41,350.929 280.41,350.929C274.686,347.079 266.79,347.573 261.658,352.508C255.736,358.232 255.539,367.608 261.263,373.53C261.263,373.53 288.109,401.461 329.265,442.42C349.794,462.85 373.777,486.734 399.931,511.803C412.86,524.436 426.381,537.464 440.001,550.689L450.266,560.657C452.338,562.532 452.931,563.519 456.286,566.085L465.86,573.29C479.48,581.975 495.567,586.811 511.951,587.108C520.044,586.614 528.235,585.923 536.032,583.357C542.744,582.173 554.291,575.758 560.114,571.908L565.74,567.467L566.431,566.875L569.293,564.704L569.688,564.407L570.971,563.124L573.537,560.657L583.801,550.689C597.52,537.464 610.943,524.436 623.97,511.803C650.026,486.734 674.009,462.85 694.637,442.42C735.694,401.461 762.638,373.53 762.638,373.53C767.375,368.595 768.165,360.699 764.118,354.778ZM400.227,616.124C413.551,600.135 411.281,576.448 395.194,563.223C379.205,549.998 355.518,552.268 342.293,568.355L261.263,666.558C257.316,671.295 256.526,678.204 259.882,683.731C264.126,690.935 273.304,693.304 280.41,689.159L390.358,624.612C394.009,622.441 397.464,619.578 400.227,616.124ZM671.937,562.828C653.875,552.465 630.879,558.683 620.516,576.646C610.054,594.707 616.272,617.703 634.235,628.066L740.135,689.159C745.366,692.12 752.176,691.824 757.21,687.777C763.625,682.546 764.612,673.071 759.381,666.558L682.3,571.711C679.437,568.257 675.983,565.197 671.937,562.828Z" style="fill:white;fill-rule:nonzero;"/>
        </g>
    </g>
</svg>
